# xmcd CD database file
#
# Track frame offsets:
#	150
#	14488
#	29599
#	42480
#	54878
#	68560
#	83131
#	97603
#	111832
#	125493
#	140073
#	154004
#	167086
#	179798
#	192943
#	205624
#	218621
#	231888
#	269872
#
# Disc length: 3939 seconds
#
# Revision: 1
# Processed by: cddbd v1.5.2PL0 Copyright (c) Steve Scherf et al.
# Submitted via: CDex 1.70beta2
#
DISCID=0f0f6113
DTITLE=Herny 'Red' Allen - Giants of Jazz Disc 2
DYEAR=1900
DGENRE=Jazz
TTITLE0=The Gold Digger's Song-Benny Morton and His Orchestra
TTITLE1=Hocus Pocus-Fletcher Henderson and His Orchestra Allen)
TTITLE2=There's a House in Harlem for Sale-Henry Allen and His Orchestra
TTITLE3=Rug Cutter's Swing-Henry Allen and His Orchestra
TTITLE4=Down South Camp Meeting-Fletcher Henderson and His Orchestra
TTITLE5=Believe It Beloved-Henry Allen and His Orchestra
TTITLE6=Rosetta-Henry Allen and His Orchestra (Allen)
TTITLE7=Body and Soul-Henry Allen and His Orchestra
TTITLE8=Ride, Red, Ride- Mills Blue Rhythm Band
TTITLE9=Isn't This a Lovely Day- Putney Dandridge and His Orchestra
TTITLE10=Lost-Henry Allen and His Orchestra
TTITLE11=Algiers Stomp-Henry 'Red' Allen and His Orchestra
TTITLE12=The Miller's Daughter, Marianne-Henry Allen and His Orchestra
TTITLE13=Sweet Substitute-Jelly Roll Morton's Seven
TTITLE14=Down in Jungle Town-Red Allen and His Orchestra
TTITLE15=Slippin' and Slidin'- Sidney Bechet and His New Orleans Feetwarmers
TTITLE16=The Crawl-Henry Allen and His Orchestra
TTITLE17=I Cover the Waterfront-Henry 'Red' Allen's All Stars
TTITLE18=I Got Rhythm-Kid Ory's Creole Jazz Band
EXTD=
EXTT0=
EXTT1=
EXTT2=
EXTT3=
EXTT4=
EXTT5=
EXTT6=
EXTT7=
EXTT8=
EXTT9=
EXTT10=
EXTT11=
EXTT12=
EXTT13=
EXTT14=
EXTT15=
EXTT16=
EXTT17=
EXTT18=
PLAYORDER=
